<mxfile host="app.diagrams.net" modified="2023-10-13T16:05:00.938Z" agent="Mozilla/5.0 (X11; Linux x86_64) AppleWebKit/537.36 (KHTML, like Gecko) Chrome/115.0.0.0 Safari/537.36 Edg/115.0.1901.203" version="22.0.4" etag="HqxxUxLFlD1SkRuU0PFB" type="github">
  <diagram name="Страница — 1" id="QnVRbCnBhFg_C33EaDdo">
    <mxGraphModel>
      <root>
        <mxCell id="0" />
        <mxCell id="1" parent="0" />
      </root>
    </mxGraphModel>
  </diagram>
</mxfile>
